<svg xmlns="http://www.w3.org/2000/svg" viewBox="0 0 64 64">
  <defs>
    <linearGradient id="g" x1="0" y1="0" x2="1" y2="1">
      <stop offset="0" stop-color="#8B5CF6"/>
      <stop offset="1" stop-color="#A78BFA"/>
    </linearGradient>
  </defs>
  <rect width="64" height="64" rx="14" fill="#111118"/>
  <g transform="translate(8 8)">
    <g fill="url(#g)">
      <path d="M22.6 20.5C16.5 8.5 5.5 5.5 4.6 12.6 3.8 18.9 12 23.6 22.6 23.4Z" opacity=".95"/>
      <path d="M25.4 20.5C31.5 8.5 42.5 5.5 43.4 12.6 44.2 18.9 36 23.6 25.4 23.4Z" opacity=".95"/>
      <path d="M22.6 25.6C13.5 25 7.5 30 10 36.2 12.3 41.6 20.4 38.6 22.6 30.4Z" opacity=".8"/>
      <path d="M25.4 25.6C34.5 25 40.5 30 38 36.2 35.7 41.6 27.6 38.6 25.4 30.4Z" opacity=".8"/>
    </g>
    <rect x="22.7" y="14" width="2.6" height="21" rx="1.3" fill="#F5F5F7" opacity=".9"/>
    <circle cx="24" cy="12.4" r="1.9" fill="#F5F5F7" opacity=".9"/>
    <path d="M22.6 11.5C20.8 8 18.4 6.2 15.8 5.4M25.4 11.5C27.2 8 29.6 6.2 32.2 5.4" stroke="#A78BFA" stroke-width="1.3" stroke-linecap="round" fill="none"/>
    <circle cx="15.4" cy="5.2" r="1" fill="#A78BFA"/>
    <circle cx="32.6" cy="5.2" r="1" fill="#A78BFA"/>
  </g>
</svg>
